<svg width="1423" height="293" viewBox="0 0 1423 293" fill="none" xmlns="http://www.w3.org/2000/svg">
<path d="M40.916 198H17.172V85.216H40.916V198ZM18.656 62.744C15.688 59.776 14.204 56.2427 14.204 52.144C14.204 48.0453 15.688 44.512 18.656 41.544C21.624 38.576 25.1573 37.092 29.256 37.092C33.3547 37.092 36.888 38.576 39.856 41.544C42.824 44.512 44.308 48.0453 44.308 52.144C44.308 56.2427 42.824 59.776 39.856 62.744C36.888 65.712 33.3547 67.196 29.256 67.196C25.1573 67.196 21.624 65.712 18.656 62.744ZM157.392 199.696C143.117 199.696 130.68 194.325 120.08 183.584C109.48 172.843 104.18 158.709 104.18 141.184C104.18 123.659 109.621 109.667 120.504 99.208C131.386 88.7493 144.318 83.52 159.3 83.52C174.422 83.52 186.577 89.88 195.764 102.6V40.696H219.508V198H195.764V181.04C187.001 193.477 174.21 199.696 157.392 199.696ZM127.924 142.244C127.924 152.985 131.386 161.748 138.312 168.532C145.237 175.316 153.364 178.708 162.692 178.708C172.02 178.708 179.934 175.316 186.436 168.532C192.937 161.607 196.188 152.773 196.188 142.032C196.188 131.291 192.937 122.316 186.436 115.108C179.934 107.9 171.949 104.296 162.48 104.296C153.01 104.296 144.884 107.9 138.1 115.108C131.316 122.316 127.924 131.361 127.924 142.244ZM271.633 168.32C278.417 175.104 286.968 178.496 297.285 178.496C307.603 178.496 316.083 175.104 322.725 168.32C329.509 161.395 332.901 152.491 332.901 141.608C332.901 130.725 329.509 121.892 322.725 115.108C316.083 108.183 307.603 104.72 297.285 104.72C286.968 104.72 278.417 108.183 271.633 115.108C264.991 121.892 261.669 130.725 261.669 141.608C261.669 152.491 264.991 161.395 271.633 168.32ZM339.685 182.948C328.379 194.113 314.245 199.696 297.285 199.696C280.325 199.696 266.192 194.113 254.885 182.948C243.579 171.641 237.925 157.861 237.925 141.608C237.925 125.355 243.579 111.645 254.885 100.48C266.192 89.1733 280.325 83.52 297.285 83.52C314.245 83.52 328.379 89.1733 339.685 100.48C350.992 111.645 356.645 125.355 356.645 141.608C356.645 157.861 350.992 171.641 339.685 182.948ZM472.47 198H445.334L406.326 85.216H430.918L458.902 170.44L486.886 85.216H511.478L539.462 170.44L567.446 85.216H592.038L553.03 198H525.894L499.182 120.832L472.47 198ZM628.313 136.944V198H604.569V40.908H628.313V105.78C631.705 98.8547 636.793 93.4133 643.577 89.456C650.503 85.4987 657.923 83.52 665.837 83.52C678.557 83.52 688.804 87.4067 696.577 95.18C704.492 102.953 708.449 114.189 708.449 128.888V198H684.705V136.096C684.705 115.32 676.084 104.932 658.841 104.932C650.644 104.932 643.507 107.688 637.429 113.2C631.352 118.571 628.313 126.485 628.313 136.944ZM824.516 198H802.892V182.948C793.564 194.113 781.056 199.696 765.368 199.696C753.637 199.696 743.885 196.375 736.112 189.732C728.48 183.089 724.664 174.256 724.664 163.232C724.664 152.067 728.763 143.728 736.96 138.216C745.157 132.704 756.252 129.948 770.244 129.948H800.984V125.708C800.984 110.727 792.645 103.236 775.968 103.236C765.509 103.236 754.627 107.052 743.32 114.684L732.72 99.844C746.429 88.9613 761.976 83.52 779.36 83.52C792.645 83.52 803.457 86.912 811.796 93.696C820.276 100.339 824.516 110.868 824.516 125.284V198ZM800.772 156.024V146.484H774.06C756.959 146.484 748.408 151.855 748.408 162.596C748.408 168.108 750.528 172.348 754.768 175.316C759.008 178.143 764.873 179.556 772.364 179.556C779.996 179.556 786.639 177.436 792.292 173.196C797.945 168.956 800.772 163.232 800.772 156.024ZM878.346 104.296V161.536C878.346 166.907 879.759 171.217 882.586 174.468C885.413 177.577 889.37 179.132 894.458 179.132C899.546 179.132 904.422 176.659 909.086 171.712L918.838 188.46C910.499 195.951 901.242 199.696 891.066 199.696C881.031 199.696 872.41 196.233 865.202 189.308C858.135 182.241 854.602 172.772 854.602 160.9V104.296H840.398V85.216H854.602V49.812H878.346V85.216H908.026V104.296H878.346Z" fill="black" fill-opacity="0.03"/>
<path d="M1023.92 205H1000.17V92.216H1023.92V205ZM1001.66 69.744C998.688 66.776 997.204 63.2427 997.204 59.144C997.204 55.0453 998.688 51.512 1001.66 48.544C1004.62 45.576 1008.16 44.092 1012.26 44.092C1016.35 44.092 1019.89 45.576 1022.86 48.544C1025.82 51.512 1027.31 55.0453 1027.31 59.144C1027.31 63.2427 1025.82 66.776 1022.86 69.744C1019.89 72.712 1016.35 74.196 1012.26 74.196C1008.16 74.196 1004.62 72.712 1001.66 69.744ZM1118.13 205H1094.39V47.696H1118.13V205ZM1167.83 205H1144.08V92.216H1167.83V205ZM1145.57 69.744C1142.6 66.776 1141.12 63.2427 1141.12 59.144C1141.12 55.0453 1142.6 51.512 1145.57 48.544C1148.54 45.576 1152.07 44.092 1156.17 44.092C1160.27 44.092 1163.8 45.576 1166.77 48.544C1169.74 51.512 1171.22 55.0453 1171.22 59.144C1171.22 63.2427 1169.74 66.776 1166.77 69.744C1163.8 72.712 1160.27 74.196 1156.17 74.196C1152.07 74.196 1148.54 72.712 1145.57 69.744ZM1217.52 205H1193.78V47.696H1217.52V140.128L1263.32 92.216H1293.84L1251.02 136.948L1297.02 205H1268.19L1234.7 155.604L1217.52 172.988V205ZM1413.42 158.996H1325.02C1325.58 167.193 1329.33 173.836 1336.25 178.924C1343.18 183.871 1351.09 186.344 1360 186.344C1374.13 186.344 1384.87 181.892 1392.22 172.988L1405.79 187.828C1393.64 200.407 1377.81 206.696 1358.3 206.696C1342.47 206.696 1328.98 201.467 1317.81 191.008C1306.79 180.408 1301.27 166.275 1301.27 148.608C1301.27 130.8 1306.93 116.667 1318.23 106.208C1329.54 95.7493 1342.83 90.52 1358.09 90.52C1373.5 90.52 1386.57 95.184 1397.31 104.512C1408.05 113.699 1413.42 126.419 1413.42 142.672V158.996ZM1325.02 140.34H1389.68C1389.68 130.871 1386.71 123.592 1380.77 118.504C1374.84 113.416 1367.49 110.872 1358.73 110.872C1350.11 110.872 1342.33 113.557 1335.41 118.928C1328.48 124.157 1325.02 131.295 1325.02 140.34Z" fill="black" fill-opacity="0.03"/>
</svg>
